<svg width="27" height="23" viewBox="0 0 27 23" fill="none" xmlns="http://www.w3.org/2000/svg">
<path d="M13.5 22L13.2423 22.4285L13.5 22.5835L13.7577 22.4285L13.5 22ZM13.5 5.08329L13.0377 5.27384L13.5 6.39529L13.9623 5.27384L13.5 5.08329ZM13.5 22C13.7577 22.4285 13.7578 22.4284 13.758 22.4283C13.7581 22.4282 13.7584 22.4281 13.7586 22.4279C13.7591 22.4276 13.7598 22.4272 13.7607 22.4267C13.7624 22.4256 13.7649 22.4241 13.7681 22.4222C13.7746 22.4182 13.784 22.4125 13.7963 22.405C13.8209 22.39 13.857 22.3679 13.9038 22.3389C13.9973 22.2809 14.1337 22.1954 14.3069 22.0844C14.6531 21.8626 15.1465 21.5386 15.738 21.1284C16.9202 20.3087 18.4988 19.1418 20.0797 17.7551C21.6583 16.3704 23.253 14.7546 24.4565 13.0354C25.6556 11.3224 26.5 9.45898 26.5 7.58946H25.5C25.5 9.16594 24.7819 10.8268 23.6373 12.4619C22.497 14.0908 20.9667 15.6469 19.4203 17.0033C17.8762 18.3578 16.3298 19.5012 15.1682 20.3066C14.5879 20.709 14.1047 21.0263 13.7673 21.2425C13.5986 21.3506 13.4665 21.4334 13.3769 21.4889C13.3322 21.5167 13.298 21.5376 13.2753 21.5514C13.264 21.5584 13.2555 21.5635 13.25 21.5669C13.2472 21.5686 13.2451 21.5698 13.2439 21.5706C13.2432 21.571 13.2428 21.5712 13.2425 21.5714C13.2424 21.5715 13.2423 21.5715 13.2422 21.5716C13.2422 21.5716 13.2423 21.5715 13.5 22ZM26.5 7.58946C26.5 3.87676 23.8895 1.35013 20.9256 0.679702C17.9449 0.00546676 14.5612 1.19675 13.0377 4.89274L13.9623 5.27384C15.2797 2.07783 18.146 1.07621 20.705 1.65506C23.2809 2.23773 25.5 4.41018 25.5 7.58946H26.5ZM13.5 22C13.7577 21.5715 13.7577 21.5716 13.7577 21.5716C13.7577 21.5715 13.7576 21.5715 13.7575 21.5714C13.7572 21.5712 13.7568 21.571 13.7561 21.5706C13.7548 21.5698 13.7528 21.5686 13.75 21.5669C13.7445 21.5635 13.736 21.5584 13.7246 21.5514C13.7019 21.5376 13.6678 21.5167 13.623 21.4889C13.5335 21.4334 13.4013 21.3506 13.2327 21.2425C12.8953 21.0263 12.4121 20.709 11.8318 20.3066C10.6702 19.5012 9.12381 18.3577 7.57971 17.0032C6.03334 15.6468 4.50299 14.0906 3.36274 12.4617C2.21811 10.8266 1.5 9.16568 1.5 7.5892H0.5C0.5 9.45872 1.34438 11.3222 2.54351 13.0352C3.747 14.7544 5.34165 16.3702 6.92027 17.755C8.50117 19.1417 10.0798 20.3087 11.262 21.1284C11.8535 21.5386 12.3469 21.8625 12.6931 22.0844C12.8662 22.1954 13.0026 22.2809 13.0962 22.3389C13.1429 22.3678 13.179 22.39 13.2036 22.405C13.2159 22.4125 13.2254 22.4182 13.2318 22.4222C13.2351 22.4241 13.2376 22.4256 13.2393 22.4267C13.2402 22.4272 13.2409 22.4276 13.2414 22.4279C13.2416 22.4281 13.2418 22.4282 13.2419 22.4283C13.2421 22.4284 13.2423 22.4285 13.5 22ZM1.5 7.5892C1.5 4.40992 3.71906 2.23753 6.29495 1.65493C8.85399 1.07614 11.7203 2.07782 13.0377 5.27384L13.9623 4.89274C12.4388 1.19676 9.05507 0.00540322 6.07435 0.679569C3.11048 1.34992 0.5 3.87649 0.5 7.5892H1.5Z" fill="#333333"/>
</svg>
