<svg width="114" height="52" viewBox="0 0 114 52" fill="none" xmlns="http://www.w3.org/2000/svg">
<path d="M35.256 30.632C32.456 35.2987 29.9173 38.5467 27.64 40.376C25.3627 42.2053 22.4133 43.12 18.792 43.12C16.7013 43.12 14.9467 42.728 13.528 41.944C12.1093 41.1227 11.4 39.928 11.4 38.36C11.4 37.464 11.6613 36.6427 12.184 35.896C12.7067 35.1493 13.416 34.776 14.312 34.776C15.2453 34.776 15.8427 35.112 16.104 35.784C15.3947 36.4933 15.04 37.3147 15.04 38.248C15.04 40.1147 16.0853 41.048 18.176 41.048C19.408 41.048 20.472 40.6187 21.368 39.76C22.3013 38.9013 22.768 37.968 22.768 36.96C22.768 35.9147 22.544 35 22.096 34.216C21.648 33.432 21.1067 32.7413 20.472 32.144C19.8373 31.5467 19.2027 30.9493 18.568 30.352C17.0373 28.896 16.272 27.2347 16.272 25.368C16.272 23.464 16.9813 21.8773 18.4 20.608C19.856 19.3013 21.8347 18.648 24.336 18.648C25.904 18.648 27.2293 18.928 28.312 19.488C29.3947 20.048 29.936 20.9253 29.936 22.12C29.936 23.2773 29.5813 24.2853 28.872 25.144C28.1627 26.0027 27.192 26.432 25.96 26.432C24.7653 26.432 24.168 25.872 24.168 24.752C24.168 24.4907 24.5973 24.0987 25.456 23.576C26.3147 23.0533 26.744 22.512 26.744 21.952C26.744 21.392 26.5013 20.9813 26.016 20.72C25.568 20.4213 24.9147 20.272 24.056 20.272C23.1973 20.272 22.3573 20.5707 21.536 21.168C20.752 21.7653 20.36 22.5493 20.36 23.52C20.36 24.4907 20.7707 25.4053 21.592 26.264C22.4133 27.1227 23.3093 27.8507 24.28 28.448C25.2507 29.0453 26.1467 29.8853 26.968 30.968C27.7893 32.0133 28.2 33.1333 28.2 34.328C28.2 35.4853 27.92 36.5307 27.36 37.464C26.8373 38.3973 26.2027 39.144 25.456 39.704C27.5467 38.808 29.768 36.568 32.12 32.984C32.344 32.6853 32.736 32.0693 33.296 31.136C34.6027 28.784 35.3307 27.608 35.48 27.608C35.704 27.608 35.816 27.9627 35.816 28.672C35.816 29.344 35.6293 29.9973 35.256 30.632Z" fill="black"/>
<path d="M59.7241 30.744C55.1321 38.472 51.2494 42.336 48.0761 42.336C45.8734 42.336 44.7721 41.0667 44.7721 38.528C44.7721 35.5787 45.9481 31.3787 48.3001 25.928C48.8227 24.5467 49.0841 23.5947 49.0841 23.072C49.0841 22.3253 48.7481 21.952 48.0761 21.952C47.6281 21.952 46.8627 22.2133 45.7801 22.736C44.7347 23.2587 43.7267 24.024 42.7561 25.032C41.7854 26.04 40.9641 27.216 40.2921 28.56C39.6574 29.8667 39.1347 31.0053 38.7241 31.976C38.3507 32.9467 37.9587 34.1413 37.5481 35.56C37.1374 36.9413 36.7641 38.08 36.4281 38.976C36.1294 39.8347 35.8121 40.8427 35.4761 42H30.0441C31.0521 39.424 32.4894 35.3173 34.3561 29.68C36.2601 24.0053 37.8841 19.5627 39.2281 16.352C40.5721 13.104 41.8787 10.3787 43.1481 8.176C44.4547 5.936 45.9294 4.06933 47.5721 2.576C49.2521 1.08266 51.0067 0.335999 52.8361 0.335999C54.7027 0.335999 55.6361 1.21333 55.6361 2.968C55.6361 4.2 55.1321 5.824 54.1241 7.84C51.9587 12.096 48.3374 17.024 43.2601 22.624C45.2761 21.168 46.8627 20.216 48.0201 19.768C49.2147 19.32 50.3534 19.096 51.4361 19.096C53.5641 19.096 54.6281 20.0293 54.6281 21.896C54.6281 22.6427 54.4974 23.3333 54.2361 23.968C53.9747 24.6027 53.6761 25.3307 53.3401 26.152C53.0414 26.9733 52.7801 27.6453 52.5561 28.168C52.3694 28.6907 52.1081 29.4 51.7721 30.296C51.4361 31.192 51.1747 31.9573 50.9881 32.592C50.5027 34.16 50.2601 35.4107 50.2601 36.344C50.2601 37.2773 50.5774 37.744 51.2121 37.744C53.4521 37.744 56.2521 34.496 59.6121 28C59.7241 27.7387 59.8547 27.608 60.0041 27.608C60.1907 27.608 60.2841 27.9627 60.2841 28.672C60.2841 29.344 60.0974 30.0347 59.7241 30.744ZM52.9481 1.736C51.6414 1.736 49.9241 3.808 47.7961 7.952C45.7054 12.096 43.6521 16.856 41.6361 22.232C46.7507 16.2213 50.2414 11.2933 52.1081 7.448C53.1534 5.096 53.6761 3.56533 53.6761 2.856C53.6761 2.10933 53.4334 1.736 52.9481 1.736Z" fill="black"/>
<path d="M84.6707 28.224C84.7827 28 84.8947 27.888 85.0067 27.888C85.2307 27.888 85.3427 28.168 85.3427 28.728C85.3427 30.52 84.6147 32.0133 83.1587 33.208C81.7401 34.3653 80.3961 34.944 79.1267 34.944C77.8947 34.944 76.8307 34.5893 75.9347 33.88C74.5907 36.5307 72.9854 38.6213 71.1187 40.152C69.2894 41.6827 66.9187 42.448 64.0067 42.448C62.1401 42.448 60.6094 41.888 59.4147 40.768C58.2574 39.6107 57.6787 37.8747 57.6787 35.56C57.6787 33.208 58.2014 30.8 59.2467 28.336C60.3294 25.8347 61.9347 23.688 64.0627 21.896C66.2281 20.104 68.6361 19.208 71.2867 19.208C75.7294 19.208 77.9507 21.56 77.9507 26.264C77.9507 28.056 77.5587 29.9413 76.7747 31.92C77.3347 32.704 78.1374 33.096 79.1827 33.096C81.1241 33.096 82.9534 31.472 84.6707 28.224ZM75.3187 24.752C75.1694 22.7733 74.2734 21.784 72.6307 21.784C70.0547 21.784 67.5347 24.2853 65.0707 29.288C63.7267 32.0507 63.0547 34.552 63.0547 36.792C63.0547 39.032 64.0254 40.208 65.9667 40.32C67.5721 40.32 69.0467 39.48 70.3907 37.8C71.7721 36.0827 72.9294 34.1973 73.8627 32.144C72.5934 31.0613 71.9587 29.6987 71.9587 28.056C71.9587 27.048 72.2201 26.2453 72.7427 25.648C73.3027 25.0507 74.0494 24.752 74.9827 24.752H75.3187Z" fill="black"/>
<path d="M100.251 9.912C98.4217 11.1813 96.3683 14.4293 94.091 19.656H99.747L99.803 19.712C99.803 19.8987 99.5977 20.2347 99.187 20.72C98.7763 21.168 98.4217 21.392 98.123 21.392H93.307C90.3577 28.7093 88.883 33.4133 88.883 35.504C88.883 36.9227 89.331 37.632 90.227 37.632C91.5337 37.632 93.0643 36.512 94.819 34.272C95.2297 33.7867 95.771 32.9653 96.443 31.808C98.1603 29.0453 99.0563 27.664 99.131 27.664C99.355 27.664 99.467 27.9627 99.467 28.56C99.4297 29.9787 97.8803 32.7413 94.819 36.848C93.811 38.192 92.5977 39.4427 91.179 40.6C89.7603 41.7573 88.4723 42.336 87.315 42.336C85.187 42.336 84.123 40.8427 84.123 37.856C84.123 35.3547 84.7203 32.48 85.915 29.232V29.176C85.2057 30.4827 84.5897 31.4533 84.067 32.088C83.5817 32.7227 83.3017 33.04 83.227 33.04C83.0777 33.04 83.003 32.816 83.003 32.368C83.003 31.8827 83.2457 31.1173 83.731 30.072C84.2537 29.0267 84.9443 27.664 85.803 25.984C86.699 24.304 87.427 22.7733 87.987 21.392H84.235C84.123 21.392 84.067 21.3173 84.067 21.168C84.067 20.9813 84.1977 20.6827 84.459 20.272C84.7577 19.8613 84.9817 19.656 85.131 19.656H89.387C92.075 13.1973 94.8003 9.968 97.563 9.968C99.1683 9.968 100.064 9.94933 100.251 9.912Z" fill="black"/>
<path d="M113 19V3H97" stroke="black"/>
<path d="M113 35V51H97" stroke="black"/>
<path d="M1 19V3H17" stroke="black"/>
<path d="M1 35V51H17" stroke="black"/>
</svg>
